<svg xmlns="http://www.w3.org/2000/svg" xmlns:xlink="http://www.w3.org/1999/xlink" width="820" height="190" viewBox="0 0 820 190">
  <style>
    text { font-family: 'Inter','Segoe UI',system-ui,sans-serif; }
    .pname { font-size: 18px; font-weight: 700; }
    .pdesc { font-size: 11.5px; fill: #8b949e; }
    .ptag { font-size: 10px; fill: #58a6ff; }
    .pct { font-size: 10px; font-weight: 700; }
  </style>
  <rect width="820" height="190" rx="16" fill="#0d1117"/>
  <rect x="16" y="16" width="255" height="158" rx="14" fill="#161b22"/>
  <circle cx="143" cy="46" r="20" fill="#1a1a2e" stroke="#ec4899" stroke-width="1.5"/>
  <path d="M137 42v8l6-4z" fill="#ec4899"/>
  <text x="143" y="86" text-anchor="middle" class="pname" fill="#ec4899">FillShy</text>
  <text x="143" y="104" text-anchor="middle" class="pdesc">Autonomous AI content</text>
  <text x="143" y="118" text-anchor="middle" class="pdesc">24/7 generation pipeline</text>
  <rect x="43" y="130" width="200" height="12" rx="6" fill="#21262d"/>
  <rect x="43" y="130" width="140" height="12" rx="6" fill="#ec4899" opacity="0.7"/>
  <text x="143" y="139" text-anchor="middle" class="pct" fill="#fff">70%</text>
  <text x="143" y="160" text-anchor="middle" class="ptag">Gemini API · GitHub · Content</text>
  <rect x="283" y="16" width="255" height="158" rx="14" fill="#161b22"/>
  <circle cx="410" cy="46" r="20" fill="#1a1a2e" stroke="#00d4ff" stroke-width="1.5"/>
  <text x="410" y="46" text-anchor="middle" dominant-baseline="central" font-size="10" font-weight="800" fill="#00d4ff">{ }</text>
  <text x="410" y="86" text-anchor="middle" class="pname" fill="#00d4ff">AKIA.js</text>
  <text x="410" y="104" text-anchor="middle" class="pdesc">Build-free transpilation</text>
  <text x="410" y="118" text-anchor="middle" class="pdesc">40+ languages in browser</text>
  <rect x="310" y="130" width="200" height="12" rx="6" fill="#21262d"/>
  <rect x="310" y="130" width="170" height="12" rx="6" fill="#00d4ff" opacity="0.7"/>
  <text x="410" y="139" text-anchor="middle" class="pct" fill="#0d1117">85%</text>
  <text x="410" y="160" text-anchor="middle" class="ptag">JavaScript · Transpiler · Framework</text>
  <rect x="550" y="16" width="255" height="158" rx="14" fill="#161b22"/>
  <circle cx="677" cy="46" r="20" fill="#1a1a2e" stroke="#f97316" stroke-width="1.5"/>
  <path d="M669 38l8 10-8 10" fill="none" stroke="#f97316" stroke-width="2" stroke-linecap="round" stroke-linejoin="round"/>
  <path d="M677 38l8 10-8 10" fill="none" stroke="#f97316" stroke-width="1.5" stroke-linecap="round" stroke-linejoin="round" opacity="0.4"/>
  <text x="677" y="86" text-anchor="middle" class="pname" fill="#f97316">Indie Jets</text>
  <text x="677" y="104" text-anchor="middle" class="pdesc">Game creation studio</text>
  <text x="677" y="118" text-anchor="middle" class="pdesc">Interactive experiences</text>
  <rect x="577" y="130" width="200" height="12" rx="6" fill="#21262d"/>
  <rect x="577" y="130" width="100" height="12" rx="6" fill="#f97316" opacity="0.7"/>
  <text x="677" y="139" text-anchor="middle" class="pct" fill="#fff">50%</text>
  <text x="677" y="160" text-anchor="middle" class="ptag">Game Dev · Creative · Studio</text>
</svg>
