<svg xmlns="http://www.w3.org/2000/svg" xmlns:xlink="http://www.w3.org/1999/xlink" width="820" height="230" viewBox="0 0 820 230">
  <style>
    text { font-family: 'Inter','Segoe UI',system-ui,sans-serif; }
    .pname { font-size: 18px; font-weight: 700; }
    .pdesc { font-size: 11.5px; fill: #8b949e; }
    .ptag { font-size: 10px; fill: #58a6ff; }
    .pct { font-size: 10px; font-weight: 700; }
  </style>
  <rect width="820" height="230" rx="16" fill="#0d1117"/>
  <rect x="16" y="16" width="255" height="198" rx="14" fill="#161b22"/>
  <circle cx="143" cy="56" r="22" fill="#1a1a2e" stroke="#f97316" stroke-width="1.5"/>
  <text x="143" y="56" text-anchor="middle" dominant-baseline="central" font-size="14" font-weight="800" fill="#f97316">AI</text>
  <text x="143" y="100" text-anchor="middle" class="pname" fill="#f97316">Debonair</text>
  <text x="143" y="120" text-anchor="middle" class="pdesc">Next-Gen AI Music Engine</text>
  <text x="143" y="136" text-anchor="middle" class="pdesc">Studio-grade audio generation</text>
  <rect x="43" y="156" width="200" height="14" rx="7" fill="#21262d"/>
  <rect x="43" y="156" width="190" height="14" rx="7" fill="#f97316" opacity="0.7"/>
  <text x="143" y="166" text-anchor="middle" class="pct" fill="#fff">95%</text>
  <text x="143" y="195" text-anchor="middle" class="ptag">Python · C++ · Neural Audio</text>
  <rect x="283" y="16" width="255" height="198" rx="14" fill="#161b22"/>
  <circle cx="410" cy="56" r="22" fill="#1a1a2e" stroke="#7c3aed" stroke-width="1.5"/>
  <text x="410" y="56" text-anchor="middle" dominant-baseline="central" font-size="12" font-weight="800" fill="#7c3aed">KΩ</text>
  <text x="410" y="100" text-anchor="middle" class="pname" fill="#7c3aed">Kathexis</text>
  <text x="410" y="120" text-anchor="middle" class="pdesc">Neural Audio Engine Core</text>
  <text x="410" y="136" text-anchor="middle" class="pdesc">Deep harmonic synthesis</text>
  <rect x="310" y="156" width="200" height="14" rx="7" fill="#21262d"/>
  <rect x="310" y="156" width="176" height="14" rx="7" fill="#7c3aed" opacity="0.7"/>
  <text x="410" y="166" text-anchor="middle" class="pct" fill="#fff">88%</text>
  <text x="410" y="195" text-anchor="middle" class="ptag">C++ · Python · API · Engine</text>
  <rect x="550" y="16" width="255" height="198" rx="14" fill="#161b22"/>
  <circle cx="677" cy="56" r="22" fill="#1a1a2e" stroke="#00d4ff" stroke-width="1.5"/>
  <text x="677" y="56" text-anchor="middle" dominant-baseline="central" font-size="12" font-weight="800" fill="#00d4ff">ZAI</text>
  <text x="677" y="100" text-anchor="middle" class="pname" fill="#00d4ff">OpenZAI</text>
  <text x="677" y="120" text-anchor="middle" class="pdesc">Open AI Framework</text>
  <text x="677" y="136" text-anchor="middle" class="pdesc">TypeScript-first AI toolkit</text>
  <rect x="577" y="156" width="200" height="14" rx="7" fill="#21262d"/>
  <rect x="577" y="156" width="164" height="14" rx="7" fill="#00d4ff" opacity="0.7"/>
  <text x="677" y="166" text-anchor="middle" class="pct" fill="#0d1117">82%</text>
  <text x="677" y="195" text-anchor="middle" class="ptag">TypeScript · AI · Open Source</text>
</svg>
