<svg xmlns="http://www.w3.org/2000/svg" xmlns:xlink="http://www.w3.org/1999/xlink" width="820" height="280" viewBox="0 0 820 280">
  <style>
    @import url('https://fonts.googleapis.com/css2?family=Inter:wght@400;600;700&amp;display=swap');
    text { font-family: 'Inter','Segoe UI',system-ui,sans-serif; }
    .card { fill: #161b22; }
    .title { font-size: 18px; font-weight: 700; }
    .item { font-size: 13px; fill: #c9d1d9; }
  </style>
  <rect width="820" height="280" rx="16" fill="#0d1117"/>
  <rect x="16" y="16" width="185" height="248" rx="14" class="card"/>
  <circle cx="108" cy="48" r="16" fill="#f97316" opacity="0.12"/>
  <g transform="translate(99,39)">
    <path d="M5 2l7 10-7 10" stroke="#f97316" stroke-width="2" fill="none" stroke-linecap="round" stroke-linejoin="round"/>
    <path d="M11 2l7 10-7 10" stroke="#f97316" stroke-width="1.3" fill="none" stroke-linecap="round" stroke-linejoin="round" opacity="0.35"/>
  </g>
  <text x="108" y="82" text-anchor="middle" class="title" fill="#f97316">Indie Jets</text>
  <text x="108" y="110" text-anchor="middle" class="item">Game Studio</text>
  <text x="108" y="132" text-anchor="middle" class="item">Interactive Worlds</text>
  <text x="108" y="154" text-anchor="middle" class="item">Creative Engines</text>
  <text x="108" y="176" text-anchor="middle" class="item">Player Experiences</text>
  <rect x="217" y="16" width="185" height="248" rx="14" class="card"/>
  <circle cx="309" cy="48" r="16" fill="#00d4ff" opacity="0.12"/>
  <g transform="translate(300,39)">
    <path d="M2 14l5-9 5 5 5-8" stroke="#00d4ff" stroke-width="1.8" fill="none" stroke-linecap="round" stroke-linejoin="round"/>
  </g>
  <text x="309" y="82" text-anchor="middle" class="title" fill="#00d4ff">Engineering</text>
  <text x="309" y="110" text-anchor="middle" class="item">Full-Stack Systems</text>
  <text x="309" y="132" text-anchor="middle" class="item">AI &amp; Neural Engines</text>
  <text x="309" y="154" text-anchor="middle" class="item">Open Source Platforms</text>
  <text x="309" y="176" text-anchor="middle" class="item">Developer Tooling</text>
  <rect x="418" y="16" width="185" height="248" rx="14" class="card"/>
  <circle cx="510" cy="48" r="16" fill="#7c3aed" opacity="0.12"/>
  <g transform="translate(501,39)">
    <circle cx="9" cy="9" r="7" stroke="#7c3aed" stroke-width="1.5" fill="none"/>
    <path d="M9 5v4l3 3" stroke="#7c3aed" stroke-width="1.5" fill="none" stroke-linecap="round"/>
  </g>
  <text x="510" y="82" text-anchor="middle" class="title" fill="#7c3aed">Research</text>
  <text x="510" y="110" text-anchor="middle" class="item">Audio AI &amp; Music</text>
  <text x="510" y="132" text-anchor="middle" class="item">Language Design</text>
  <text x="510" y="154" text-anchor="middle" class="item">Knowledge Systems</text>
  <text x="510" y="176" text-anchor="middle" class="item">Autonomous Pipelines</text>
  <rect x="619" y="16" width="185" height="248" rx="14" class="card"/>
  <circle cx="711" cy="48" r="16" fill="#fbbf24" opacity="0.12"/>
  <g transform="translate(702,39)">
    <path d="M3 3h14v14H3z" stroke="#fbbf24" stroke-width="1.5" fill="none" rx="2"/>
    <path d="M3 9h14M9 3v14" stroke="#fbbf24" stroke-width="1.2" fill="none" stroke-linecap="round"/>
  </g>
  <text x="711" y="82" text-anchor="middle" class="title" fill="#fbbf24">Ventures</text>
  <text x="711" y="110" text-anchor="middle" class="item">Strategic Products</text>
  <text x="711" y="132" text-anchor="middle" class="item">Content Generation</text>
  <text x="711" y="154" text-anchor="middle" class="item">Brand Architecture</text>
  <text x="711" y="176" text-anchor="middle" class="item">Growth Systems</text>
</svg>
