<svg xmlns="http://www.w3.org/2000/svg" xmlns:xlink="http://www.w3.org/1999/xlink" width="820" height="230" viewBox="0 0 820 230">
  <defs>
    <filter id="glow" x="-20%" y="-20%" width="140%" height="140%">
      <feGaussianBlur stdDeviation="4" result="blur"/>
      <feComposite in="SourceGraphic" in2="blur" operator="over"/>
    </filter>
  </defs>
  <style>
    @import url('https://fonts.googleapis.com/css2?family=Plus+Jakarta+Sans:wght@400;500;600;700;800&display=swap');
    text { font-family: 'Plus Jakarta Sans', system-ui, sans-serif !important; }
    text { font-family: 'Inter','Segoe UI',system-ui,sans-serif; }
    .pname { font-size: 18px; font-weight: 800; letter-spacing: -0.5px; }
    .pdesc { font-size: 12px; fill: #94A3B8; font-weight: 500; }
    .ptag { font-size: 10px; fill: #64748B; font-weight: 600; letter-spacing: 0.5px; }
    .pct { font-size: 10px; font-weight: 700; }
    .porg { font-size: 9px; fill: #475569; font-weight: 700; letter-spacing: 2px; }
  </style>
  <rect width="820" height="230" rx="16" fill="transparent"/>
  <rect x="16" y="16" width="255" height="198" rx="14" fill="transparent"/>
  <circle cx="143" cy="50" r="20" fill="transparent" stroke-dasharray="4 4" stroke="#a855f7" stroke-width="1.5"/>
  <circle cx="136" cy="46" r="4" fill="none" stroke="#a855f7" stroke-width="1.5"/>
  <path d="M148 42l-12 12" stroke="#a855f7" stroke-width="1.5" stroke-linecap="round"/>
  <circle cx="152" cy="54" r="4" fill="none" stroke="#a855f7" stroke-width="1.5"/>
  <text x="143" y="82" text-anchor="middle" class="porg">iNathlan</text>
  <text x="143" y="100" text-anchor="middle" class="pname" fill="#a855f7">Bilbid</text>
  <text x="143" y="118" text-anchor="middle" class="pdesc">Semantic Knowledge Engine</text>
  <text x="143" y="134" text-anchor="middle" class="pdesc">Structured knowledge graphs</text>
  <rect x="43" y="152" width="200" height="12" rx="6" fill="#1E293B"/>
  <rect x="43" y="152" width="174" height="12" rx="6" fill="#a855f7" opacity="0.8" filter="url(#glow)"/>
  <text x="143" y="161" text-anchor="middle" class="pct" fill="#fff">87%</text>
  <text x="143" y="183" text-anchor="middle" class="ptag">AI · NLP · Knowledge Graph</text>
  <rect x="283" y="16" width="255" height="198" rx="14" fill="transparent"/>
  <circle cx="410" cy="50" r="20" fill="transparent" stroke-dasharray="4 4" stroke="#1DB954" stroke-width="1.5"/>
  <path d="M400 44c4-1 8 0 11 2M398 50c5-1 10 0 14 2M396 56c6-1 12 0 16 2" fill="none" stroke="#1DB954" stroke-width="1.8" stroke-linecap="round"/>
  <circle cx="397" cy="43" r="1.5" fill="#1DB954"/>
  <circle cx="415" cy="43" r="1.5" fill="#1DB954"/>
  <text x="410" y="82" text-anchor="middle" class="porg">iNathlan</text>
  <text x="410" y="100" text-anchor="middle" class="pname" fill="#1DB954">IUKKA Player</text>
  <text x="410" y="118" text-anchor="middle" class="pdesc">Quantum Streaming Platform</text>
  <text x="410" y="134" text-anchor="middle" class="pdesc">Immersive sound design</text>
  <rect x="310" y="152" width="200" height="12" rx="6" fill="#1E293B"/>
  <rect x="310" y="152" width="152" height="12" rx="6" fill="#1DB954" opacity="0.8" filter="url(#glow)"/>
  <text x="410" y="161" text-anchor="middle" class="pct" fill="#fff">76%</text>
  <text x="410" y="183" text-anchor="middle" class="ptag">WebRTC · Streaming · Audio</text>
  <rect x="550" y="16" width="255" height="198" rx="14" fill="transparent"/>
  <circle cx="677" cy="50" r="20" fill="transparent" stroke-dasharray="4 4" stroke="#58a6ff" stroke-width="1.5"/>
  <rect x="667" y="40" width="8" height="8" rx="2" fill="#58a6ff" opacity="0.4"/>
  <rect x="677" y="40" width="8" height="8" rx="2" fill="#58a6ff" opacity="0.8" filter="url(#glow)"/>
  <rect x="667" y="50" width="8" height="8" rx="2" fill="#58a6ff" opacity="0.8" filter="url(#glow)"/>
  <rect x="677" y="50" width="8" height="8" rx="2" fill="#58a6ff"/>
  <text x="677" y="82" text-anchor="middle" class="porg">iNathlan</text>
  <text x="677" y="100" text-anchor="middle" class="pname" fill="#58a6ff">SHIYO</text>
  <text x="677" y="118" text-anchor="middle" class="pdesc">Social Media Portfolio</text>
  <text x="677" y="134" text-anchor="middle" class="pdesc">Showcase &amp; connect</text>
  <rect x="577" y="152" width="200" height="12" rx="6" fill="#1E293B"/>
  <rect x="577" y="152" width="140" height="12" rx="6" fill="#58a6ff" opacity="0.8" filter="url(#glow)"/>
  <text x="677" y="161" text-anchor="middle" class="pct" fill="transparent">70%</text>
  <text x="677" y="183" text-anchor="middle" class="ptag">React · Node.js · Social · API</text>
</svg>

