<svg xmlns="http://www.w3.org/2000/svg" xmlns:xlink="http://www.w3.org/1999/xlink" width="820" height="150" viewBox="0 0 820 150">
  <style>
    text { font-family: 'Inter','Segoe UI',system-ui,sans-serif; }
    .pname { font-size: 17px; font-weight: 700; }
    .pdesc { font-size: 11.5px; fill: #8b949e; }
    .ptag { font-size: 10px; fill: #58a6ff; }
    .pct { font-size: 10px; font-weight: 700; }
    .porg { font-size: 9px; fill: #484f58; font-weight: 600; letter-spacing: 1px; }
  </style>
  <rect width="820" height="150" rx="16" fill="transparent"/>
  <rect x="16" y="16" width="255" height="118" rx="14" fill="transparent"/>
  <circle cx="143" cy="38" r="16" fill="#1a1a2e" stroke="#FF6B00" stroke-width="1.5"/>
  <path d="M138 32h10v8h-10z" fill="none" stroke="#FF6B00" stroke-width="1.5" rx="2"/>
  <path d="M141 35h4M141 38h3" stroke="#FF6B00" stroke-width="1.2" stroke-linecap="round"/>
  <text x="143" y="66" text-anchor="middle" class="porg">iNathlan</text>
  <text x="143" y="82" text-anchor="middle" class="pname" fill="#FF6B00">Mark-Zytros</text>
  <text x="143" y="98" text-anchor="middle" class="pdesc">Institutional HQ Platform</text>
  <rect x="43" y="106" width="200" height="10" rx="5" fill="#21262d"/>
  <rect x="43" y="106" width="160" height="10" rx="5" fill="#FF6B00" opacity="0.7"/>
  <text x="143" y="114" text-anchor="middle" class="pct" fill="#fff">80%</text>
  <rect x="283" y="16" width="255" height="118" rx="14" fill="transparent"/>
  <circle cx="410" cy="38" r="16" fill="#1a1a2e" stroke="#f97316" stroke-width="1.5"/>
  <path d="M404 30l12 12M404 42l12-12" stroke="#f97316" stroke-width="2" stroke-linecap="round"/>
  <text x="410" y="66" text-anchor="middle" class="porg">iNathlan</text>
  <text x="410" y="82" text-anchor="middle" class="pname" fill="#f97316">Nackown</text>
  <text x="410" y="98" text-anchor="middle" class="pdesc">Creative toolkit &amp; utilities</text>
  <rect x="310" y="106" width="200" height="10" rx="5" fill="#21262d"/>
  <rect x="310" y="106" width="110" height="10" rx="5" fill="#f97316" opacity="0.7"/>
  <text x="410" y="114" text-anchor="middle" class="pct" fill="#fff">55%</text>
  <rect x="550" y="16" width="255" height="118" rx="14" fill="transparent"/>
  <circle cx="677" cy="38" r="16" fill="#1a1a2e" stroke="#6e7681" stroke-width="1.5"/>
  <path d="M670 32h4v4h-4zM676 32h4v4h-4zM670 38h4v4h-4zM676 38h4v4h-4z" fill="none" stroke="#6e7681" stroke-width="1.2" rx="1"/>
  <text x="677" y="66" text-anchor="middle" class="porg">iNathlan</text>
  <text x="677" y="82" text-anchor="middle" class="pname" fill="#6e7681">PS-Clear</text>
  <text x="677" y="98" text-anchor="middle" class="pdesc">PowerShell system utility</text>
  <rect x="577" y="106" width="200" height="10" rx="5" fill="#21262d"/>
  <rect x="577" y="106" width="80" height="10" rx="5" fill="#6e7681" opacity="0.7"/>
  <text x="677" y="114" text-anchor="middle" class="pct" fill="#fff">40%</text>
</svg>

