<svg xmlns="http://www.w3.org/2000/svg" xmlns:xlink="http://www.w3.org/1999/xlink" width="820" height="230" viewBox="0 0 820 230">
  <defs>
    <filter id="glow" x="-20%" y="-20%" width="140%" height="140%">
      <feGaussianBlur stdDeviation="4" result="blur"/>
      <feComposite in="SourceGraphic" in2="blur" operator="over"/>
    </filter>
  </defs>
  <style>
    text { font-family: 'Segoe UI', system-ui, -apple-system, sans-serif; }
    .pname { font-size: 18px; font-weight: 800; letter-spacing: -0.5px; }
    .pdesc { font-size: 12px; fill: #94A3B8; font-weight: 500; }
    .ptag { font-size: 10px; fill: #64748B; font-weight: 600; letter-spacing: 0.5px; }
    .pct { font-size: 10px; font-weight: 700; }
    .porg { font-size: 9px; fill: #475569; font-weight: 700; letter-spacing: 2px; }
  </style>
  <rect width="820" height="230" rx="16" fill="transparent"/>
  <rect x="16" y="16" width="255" height="198" rx="14" fill="transparent"/>
  <circle cx="143" cy="50" r="20" fill="transparent" stroke-dasharray="4 4" stroke="#f97316" stroke-width="1.5"/>
  <text x="143" y="50" text-anchor="middle" dominant-baseline="central" font-size="11" font-weight="800" fill="#f97316">AI</text>
  <text x="143" y="82" text-anchor="middle" class="porg">iNathlan</text>
  <text x="143" y="100" text-anchor="middle" class="pname" fill="#f97316">Debonair</text>
  <text x="143" y="118" text-anchor="middle" class="pdesc">Next-Gen AI Music Engine</text>
  <text x="143" y="134" text-anchor="middle" class="pdesc">Studio-grade audio generation</text>
  <rect x="43" y="152" width="200" height="12" rx="6" fill="#1E293B"/>
  <rect x="43" y="152" width="190" height="12" rx="6" fill="#f97316" opacity="0.8" filter="url(#glow)"/>
  <text x="143" y="161" text-anchor="middle" class="pct" fill="#fff">95%</text>
  <text x="143" y="183" text-anchor="middle" class="ptag">Python · C++ · Neural Audio</text>
  <rect x="283" y="16" width="255" height="198" rx="14" fill="transparent"/>
  <circle cx="410" cy="50" r="20" fill="transparent" stroke-dasharray="4 4" stroke="#7c3aed" stroke-width="1.5"/>
  <text x="410" y="50" text-anchor="middle" dominant-baseline="central" font-size="10" font-weight="800" fill="#7c3aed">KΩ</text>
  <text x="410" y="82" text-anchor="middle" class="porg">iNathlan</text>
  <text x="410" y="100" text-anchor="middle" class="pname" fill="#7c3aed">Kathexis</text>
  <text x="410" y="118" text-anchor="middle" class="pdesc">Neural Audio Engine Core</text>
  <text x="410" y="134" text-anchor="middle" class="pdesc">Deep harmonic synthesis</text>
  <rect x="310" y="152" width="200" height="12" rx="6" fill="#1E293B"/>
  <rect x="310" y="152" width="176" height="12" rx="6" fill="#7c3aed" opacity="0.8" filter="url(#glow)"/>
  <text x="410" y="161" text-anchor="middle" class="pct" fill="#fff">88%</text>
  <text x="410" y="183" text-anchor="middle" class="ptag">C++ · Python · API · Engine</text>
  <rect x="550" y="16" width="255" height="198" rx="14" fill="transparent"/>
  <circle cx="677" cy="50" r="20" fill="transparent" stroke-dasharray="4 4" stroke="#00d4ff" stroke-width="1.5"/>
  <text x="677" y="50" text-anchor="middle" dominant-baseline="central" font-size="10" font-weight="800" fill="#00d4ff">ZAI</text>
  <text x="677" y="82" text-anchor="middle" class="porg">iNathlan</text>
  <text x="677" y="100" text-anchor="middle" class="pname" fill="#00d4ff">OpenZAI</text>
  <text x="677" y="118" text-anchor="middle" class="pdesc">Open AI Framework</text>
  <text x="677" y="134" text-anchor="middle" class="pdesc">TypeScript-first AI toolkit</text>
  <rect x="577" y="152" width="200" height="12" rx="6" fill="#1E293B"/>
  <rect x="577" y="152" width="150" height="12" rx="6" fill="#00d4ff" opacity="0.8" filter="url(#glow)"/>
  <text x="677" y="161" text-anchor="middle" class="pct" fill="transparent">75%</text>
  <text x="677" y="183" text-anchor="middle" class="ptag">TypeScript · AI · Open Source</text>
</svg>
