<svg xmlns="http://www.w3.org/2000/svg" xmlns:xlink="http://www.w3.org/1999/xlink" width="820" height="230" viewBox="0 0 820 230">
  <style>
    text { font-family: 'Inter','Segoe UI',system-ui,sans-serif; }
    .pname { font-size: 17px; font-weight: 700; }
    .pdesc { font-size: 11.5px; fill: #8b949e; }
    .ptag { font-size: 10px; fill: #58a6ff; }
    .pct { font-size: 10px; font-weight: 700; }
    .porg { font-size: 9px; fill: #484f58; font-weight: 600; letter-spacing: 1px; }
  </style>
  <rect width="820" height="230" rx="16" fill="#0d1117"/>
  <rect x="16" y="16" width="255" height="198" rx="14" fill="#161b22"/>
  <circle cx="143" cy="50" r="20" fill="#1a1a2e" stroke="#3b82f6" stroke-width="1.5"/>
  <path d="M133 44l10 6-10 6" fill="none" stroke="#3b82f6" stroke-width="2.5" stroke-linecap="round" stroke-linejoin="round"/>
  <text x="143" y="82" text-anchor="middle" class="porg">iNathlan</text>
  <text x="143" y="100" text-anchor="middle" class="pname" fill="#3b82f6">SoFlowX</text>
  <text x="143" y="118" text-anchor="middle" class="pdesc">Flow-based workflow engine</text>
  <text x="143" y="134" text-anchor="middle" class="pdesc">Automation &amp; orchestration</text>
  <rect x="43" y="152" width="200" height="12" rx="6" fill="#21262d"/>
  <rect x="43" y="152" width="130" height="12" rx="6" fill="#3b82f6" opacity="0.7"/>
  <text x="143" y="161" text-anchor="middle" class="pct" fill="#fff">65%</text>
  <text x="143" y="183" text-anchor="middle" class="ptag">TypeScript · Workflow · Automation</text>
  <rect x="283" y="16" width="255" height="198" rx="14" fill="#161b22"/>
  <circle cx="410" cy="50" r="20" fill="#1a1a2e" stroke="#fbbf24" stroke-width="1.5"/>
  <path d="M402 42h16M402 48h10M402 54h14" stroke="#fbbf24" stroke-width="1.8" stroke-linecap="round"/>
  <text x="410" y="82" text-anchor="middle" class="porg">iNathlan</text>
  <text x="410" y="100" text-anchor="middle" class="pname" fill="#fbbf24">DevThink</text>
  <text x="410" y="118" text-anchor="middle" class="pdesc">Developer thinking tools</text>
  <text x="410" y="134" text-anchor="middle" class="pdesc">Smart dev workflow system</text>
  <rect x="310" y="152" width="200" height="12" rx="6" fill="#21262d"/>
  <rect x="310" y="152" width="120" height="12" rx="6" fill="#fbbf24" opacity="0.7"/>
  <text x="410" y="161" text-anchor="middle" class="pct" fill="#0d1117">60%</text>
  <text x="410" y="183" text-anchor="middle" class="ptag">Node.js · Tooling · Developer UX</text>
  <rect x="550" y="16" width="255" height="198" rx="14" fill="#161b22"/>
  <circle cx="677" cy="50" r="20" fill="#1a1a2e" stroke="#ec4899" stroke-width="1.5"/>
  <path d="M669 42v16l8-8z" fill="#ec4899"/>
  <text x="677" y="82" text-anchor="middle" class="porg">iNathlan</text>
  <text x="677" y="100" text-anchor="middle" class="pname" fill="#ec4899">Shimp</text>
  <text x="677" y="118" text-anchor="middle" class="pdesc">Lightweight toolkit</text>
  <text x="677" y="134" text-anchor="middle" class="pdesc">Minimal utility library</text>
  <rect x="577" y="152" width="200" height="12" rx="6" fill="#21262d"/>
  <rect x="577" y="152" width="100" height="12" rx="6" fill="#ec4899" opacity="0.7"/>
  <text x="677" y="161" text-anchor="middle" class="pct" fill="#fff">50%</text>
  <text x="677" y="183" text-anchor="middle" class="ptag">JavaScript · Utility · Toolkit</text>
</svg>
