<svg xmlns="http://www.w3.org/2000/svg" xmlns:xlink="http://www.w3.org/1999/xlink" width="820" height="230" viewBox="0 0 820 230">
  <defs>
    <filter id="glow" x="-20%" y="-20%" width="140%" height="140%">
      <feGaussianBlur stdDeviation="4" result="blur"/>
      <feComposite in="SourceGraphic" in2="blur" operator="over"/>
    </filter>
  </defs>
  <style>
    text { font-family: 'Segoe UI', system-ui, -apple-system, sans-serif; }
    .pname { font-size: 18px; font-weight: 800; letter-spacing: -0.5px; }
    .pdesc { font-size: 12px; fill: #94A3B8; font-weight: 500; }
    .ptag { font-size: 10px; fill: #64748B; font-weight: 600; letter-spacing: 0.5px; }
    .pct { font-size: 10px; font-weight: 700; }
    .porg { font-size: 9px; fill: #475569; font-weight: 700; letter-spacing: 2px; }
  </style>
  <rect width="820" height="230" rx="16" fill="transparent"/>
  <rect x="16" y="16" width="255" height="198" rx="14" fill="transparent"/>
  <circle cx="143" cy="50" r="20" fill="transparent" stroke-dasharray="4 4" stroke="#00d4ff" stroke-width="1.5"/>
  <text x="143" y="50" text-anchor="middle" dominant-baseline="central" font-size="10" font-weight="800" fill="#00d4ff">{ }</text>
  <text x="143" y="82" text-anchor="middle" class="porg">iNathlan</text>
  <text x="143" y="100" text-anchor="middle" class="pname" fill="#00d4ff">AKIA.js</text>
  <text x="143" y="118" text-anchor="middle" class="pdesc">Build-free transpilation</text>
  <text x="143" y="134" text-anchor="middle" class="pdesc">40+ languages in browser</text>
  <rect x="43" y="152" width="200" height="12" rx="6" fill="#1E293B"/>
  <rect x="43" y="152" width="170" height="12" rx="6" fill="#00d4ff" opacity="0.8" filter="url(#glow)"/>
  <text x="143" y="161" text-anchor="middle" class="pct" fill="transparent">85%</text>
  <text x="143" y="183" text-anchor="middle" class="ptag">JavaScript · Transpiler · Framework</text>
  <rect x="283" y="16" width="255" height="198" rx="14" fill="transparent"/>
  <circle cx="410" cy="50" r="20" fill="transparent" stroke-dasharray="4 4" stroke="#fbbf24" stroke-width="1.5"/>
  <text x="410" y="50" text-anchor="middle" dominant-baseline="central" font-size="9" font-weight="800" fill="#fbbf24">.ak</text>
  <text x="410" y="82" text-anchor="middle" class="porg">iNathlan</text>
  <text x="410" y="100" text-anchor="middle" class="pname" fill="#fbbf24">.ak Language</text>
  <text x="410" y="118" text-anchor="middle" class="pdesc">Proprietary web language</text>
  <text x="410" y="134" text-anchor="middle" class="pdesc">Native compiler design</text>
  <rect x="310" y="152" width="200" height="12" rx="6" fill="#1E293B"/>
  <rect x="310" y="152" width="176" height="12" rx="6" fill="#fbbf24" opacity="0.8" filter="url(#glow)"/>
  <text x="410" y="161" text-anchor="middle" class="pct" fill="transparent">88%</text>
  <text x="410" y="183" text-anchor="middle" class="ptag">Compiler · Native · Web</text>
  <rect x="550" y="16" width="255" height="198" rx="14" fill="transparent"/>
  <circle cx="677" cy="50" r="20" fill="transparent" stroke-dasharray="4 4" stroke="#4ecdc4" stroke-width="1.5"/>
  <path d="M669 42l8 8-8 8" fill="none" stroke="#4ecdc4" stroke-width="2.5" stroke-linecap="round" stroke-linejoin="round"/>
  <path d="M677 42h4a4 4 0 0 1 0 8h-4" fill="none" stroke="#4ecdc4" stroke-width="2" stroke-linecap="round"/>
  <text x="677" y="82" text-anchor="middle" class="porg">iNathlan</text>
  <text x="677" y="100" text-anchor="middle" class="pname" fill="#4ecdc4">Readgex</text>
  <text x="677" y="118" text-anchor="middle" class="pdesc">Intelligent AI Browser</text>
  <text x="677" y="134" text-anchor="middle" class="pdesc">Autonomous agent system</text>
  <rect x="577" y="152" width="200" height="12" rx="6" fill="#1E293B"/>
  <rect x="577" y="152" width="164" height="12" rx="6" fill="#4ecdc4" opacity="0.8" filter="url(#glow)"/>
  <text x="677" y="161" text-anchor="middle" class="pct" fill="transparent">82%</text>
  <text x="677" y="183" text-anchor="middle" class="ptag">React · TypeScript · AI</text>
</svg>

