<svg xmlns="http://www.w3.org/2000/svg" xmlns:xlink="http://www.w3.org/1999/xlink" width="820" height="230" viewBox="0 0 820 230">
  <style>
    text { font-family: 'Inter','Segoe UI',system-ui,sans-serif; }
    .pname { font-size: 17px; font-weight: 700; }
    .pdesc { font-size: 11.5px; fill: #8b949e; }
    .ptag { font-size: 10px; fill: #58a6ff; }
    .pct { font-size: 10px; font-weight: 700; }
    .porg { font-size: 9px; fill: #484f58; font-weight: 600; letter-spacing: 1px; }
  </style>
  <rect width="820" height="230" rx="16" fill="transparent"/>
  <rect x="16" y="16" width="255" height="198" rx="14" fill="transparent"/>
  <circle cx="143" cy="50" r="20" fill="#1a1a2e" stroke="#00d4ff" stroke-width="1.5"/>
  <text x="143" y="50" text-anchor="middle" dominant-baseline="central" font-size="10" font-weight="800" fill="#00d4ff">{ }</text>
  <text x="143" y="82" text-anchor="middle" class="porg">iNathlan</text>
  <text x="143" y="100" text-anchor="middle" class="pname" fill="#00d4ff">AKIA.js</text>
  <text x="143" y="118" text-anchor="middle" class="pdesc">Build-free transpilation</text>
  <text x="143" y="134" text-anchor="middle" class="pdesc">40+ languages in browser</text>
  <rect x="43" y="152" width="200" height="12" rx="6" fill="#21262d"/>
  <rect x="43" y="152" width="170" height="12" rx="6" fill="#00d4ff" opacity="0.7"/>
  <text x="143" y="161" text-anchor="middle" class="pct" fill="transparent">85%</text>
  <text x="143" y="183" text-anchor="middle" class="ptag">JavaScript · Transpiler · Framework</text>
  <rect x="283" y="16" width="255" height="198" rx="14" fill="transparent"/>
  <circle cx="410" cy="50" r="20" fill="#1a1a2e" stroke="#fbbf24" stroke-width="1.5"/>
  <text x="410" y="50" text-anchor="middle" dominant-baseline="central" font-size="9" font-weight="800" fill="#fbbf24">.ak</text>
  <text x="410" y="82" text-anchor="middle" class="porg">iNathlan</text>
  <text x="410" y="100" text-anchor="middle" class="pname" fill="#fbbf24">.ak Language</text>
  <text x="410" y="118" text-anchor="middle" class="pdesc">Proprietary web language</text>
  <text x="410" y="134" text-anchor="middle" class="pdesc">Native compiler design</text>
  <rect x="310" y="152" width="200" height="12" rx="6" fill="#21262d"/>
  <rect x="310" y="152" width="176" height="12" rx="6" fill="#fbbf24" opacity="0.7"/>
  <text x="410" y="161" text-anchor="middle" class="pct" fill="transparent">88%</text>
  <text x="410" y="183" text-anchor="middle" class="ptag">Compiler · Native · Web</text>
  <rect x="550" y="16" width="255" height="198" rx="14" fill="transparent"/>
  <circle cx="677" cy="50" r="20" fill="#1a1a2e" stroke="#4ecdc4" stroke-width="1.5"/>
  <path d="M669 42l8 8-8 8" fill="none" stroke="#4ecdc4" stroke-width="2.5" stroke-linecap="round" stroke-linejoin="round"/>
  <path d="M677 42h4a4 4 0 0 1 0 8h-4" fill="none" stroke="#4ecdc4" stroke-width="2" stroke-linecap="round"/>
  <text x="677" y="82" text-anchor="middle" class="porg">iNathlan</text>
  <text x="677" y="100" text-anchor="middle" class="pname" fill="#4ecdc4">Readgex</text>
  <text x="677" y="118" text-anchor="middle" class="pdesc">Intelligent AI Browser</text>
  <text x="677" y="134" text-anchor="middle" class="pdesc">Autonomous agent system</text>
  <rect x="577" y="152" width="200" height="12" rx="6" fill="#21262d"/>
  <rect x="577" y="152" width="164" height="12" rx="6" fill="#4ecdc4" opacity="0.7"/>
  <text x="677" y="161" text-anchor="middle" class="pct" fill="transparent">82%</text>
  <text x="677" y="183" text-anchor="middle" class="ptag">React · TypeScript · AI</text>
</svg>

