<svg xmlns="http://www.w3.org/2000/svg" width="820" height="300" viewBox="0 0 820 300">
<style>
@import url('https://fonts.googleapis.com/css2?family=Inter:wght@400;600;700&amp;display=swap');
text { font-family: 'Inter','Segoe UI',system-ui,sans-serif; }
.name { font-size: 16px; font-weight: 700; }
.role { font-size: 11px; fill: #8b949e; }
.team-label { font-size: 9.5px; font-weight: 600; letter-spacing: 1px; }
.handle { font-size: 10px; fill: #484f58; font-weight: 500; }
</style>
<rect width="820" height="300" rx="16" fill="#0d1117"/>

<!-- Card 1: wenathlan -->
<rect x="120" y="16" width="185" height="148" rx="14" fill="#161b22"/>
<circle cx="212.5" cy="52" r="28" fill="#7c3aed" opacity="0.15"/>
<text x="212.5" y="60" text-anchor="middle" font-size="18" font-weight="700" fill="#7c3aed">WN</text>
<text x="212.5" y="100" text-anchor="middle" class="name" fill="#7c3aed">wenathlan</text>
<text x="212.5" y="116" text-anchor="middle" class="role">Founder &amp; Architect</text>
<rect x="173" y="126" width="56" height="16" rx="8" fill="#7c3aed" opacity="0.12"/>
<text x="200" y="137" text-anchor="middle" class="team-label" fill="#7c3aed">DEV</text>
<rect x="234" y="126" width="56" height="16" rx="8" fill="#7c3aed" opacity="0.12"/>
<text x="261" y="137" text-anchor="middle" class="team-label" fill="#7c3aed">DESIGN</text>
<text x="212.5" y="154" text-anchor="middle" class="handle">@wenathlan</text>

<!-- Card 2: aasblor -->
<rect x="318" y="16" width="185" height="148" rx="14" fill="#161b22"/>
<circle cx="410.5" cy="52" r="28" fill="#f97316" opacity="0.15"/>
<text x="410.5" y="60" text-anchor="middle" font-size="18" font-weight="700" fill="#f97316">AS</text>
<text x="410.5" y="100" text-anchor="middle" class="name" fill="#f97316">aasblor</text>
<text x="410.5" y="116" text-anchor="middle" class="role">Backend Developer</text>
<rect x="370" y="126" width="80" height="16" rx="8" fill="#f97316" opacity="0.12"/>
<text x="410.5" y="137" text-anchor="middle" class="team-label" fill="#f97316">DEVELOPER</text>
<text x="410.5" y="154" text-anchor="middle" class="handle">@aasblor</text>

<!-- Card 3: nasblor -->
<rect x="516" y="16" width="185" height="148" rx="14" fill="#161b22"/>
<circle cx="608.5" cy="52" r="28" fill="#fbbf24" opacity="0.15"/>
<text x="608.5" y="60" text-anchor="middle" font-size="18" font-weight="700" fill="#fbbf24">NB</text>
<text x="608.5" y="100" text-anchor="middle" class="name" fill="#fbbf24">nasblor</text>
<text x="608.5" y="116" text-anchor="middle" class="role">Product Designer</text>
<rect x="568" y="126" width="96" height="16" rx="8" fill="#fbbf24" opacity="0.12"/>
<text x="608.5" y="137" text-anchor="middle" class="team-label" fill="#fbbf24">DESIGN PRODUCT</text>
<text x="608.5" y="154" text-anchor="middle" class="handle">@nasblor</text>

<!-- Org Structure -->
<rect x="16" y="180" width="788" height="104" rx="14" fill="#161b22"/>
<text x="410" y="208" text-anchor="middle" font-size="13" font-weight="700" letter-spacing="2" fill="#58a6ff">ORG STRUCTURE</text>

<rect x="56" y="218" width="120" height="36" rx="10" fill="#00d4ff" opacity="0.08" stroke="#00d4ff" stroke-width="0.8"/>
<text x="116" y="240" text-anchor="middle" font-size="12" font-weight="600" fill="#00d4ff">Developer</text>
<text x="116" y="276" text-anchor="middle" font-size="10px" fill="#8b949e">wenathlan · aasblor</text>
<line x1="116" y1="254" x2="116" y2="264" stroke="#00d4ff" stroke-width="0.8" opacity="0.4"/>

<rect x="344" y="218" width="132" height="36" rx="10" fill="#fbbf24" opacity="0.08" stroke="#fbbf24" stroke-width="0.8"/>
<text x="410" y="240" text-anchor="middle" font-size="12" font-weight="600" fill="#fbbf24">Design Product</text>
<text x="410" y="276" text-anchor="middle" font-size="10px" fill="#8b949e">wenathlan · nasblor</text>
<line x1="410" y1="254" x2="410" y2="264" stroke="#fbbf24" stroke-width="0.8" opacity="0.4"/>

<rect x="644" y="218" width="100" height="36" rx="10" fill="#7c3aed" opacity="0.08" stroke="#7c3aed" stroke-width="0.8"/>
<text x="694" y="240" text-anchor="middle" font-size="12" font-weight="600" fill="#7c3aed">Core</text>
<text x="694" y="276" text-anchor="middle" font-size="10px" fill="#8b949e">wenathlan</text>
<line x1="694" y1="254" x2="694" y2="264" stroke="#7c3aed" stroke-width="0.8" opacity="0.4"/>
</svg>